# xmcd
#
# Track frame offsets:
#	150
#	13442
#	27813
#	42572
#	59200
#	73164
#	88607
#	99871
#	116323
#	132812
#	146098
#	164584
#
# Disc length: 2343 seconds
#
# Revision: 1
# Processed by: cddbd v1.5.2PL0 Copyright (c) Steve Scherf et al.
# Submitted via: audiograbber 1.83.01
#
DISCID=ae09250c
DTITLE=Various Artist - CDX 042
DYEAR=1992
DGENRE=Country
TTITLE0=Chris Ledoux - Cadillac Ranch
TTITLE1=John Gorka - I Don't Feel Like A Train
TTITLE2=The Mavericks - I Got You
TTITLE3=Lee Greenwood - I Never Thought Your Memory Would Ever Go This Far
TTITLE4=Diamond Rio - In A Week Or Two
TTITLE5=Confederate Railroad - Queen Of Memphis
TTITLE6=Alan Jackson - She's Got The Rhythm (And I Got The Blues)
TTITLE7=Lisa Stewart - Somebody's In Love
TTITLE8=Lionel Cartwright - Standing On The Promises
TTITLE9=Royce Ryan - Too Good Not To Be True
TTITLE10=Trisha Yearwood - Walkaway Joe [Special Guest Don Henley]
TTITLE11=The Swing Shift Band - You Pushed Me To The Limit [Featuring Ray Penni
TTITLE11=ngton]
EXTD=
EXTT0=
EXTT1=
EXTT2=
EXTT3=
EXTT4=
EXTT5=
EXTT6=
EXTT7=
EXTT8=
EXTT9=
EXTT10=
EXTT11=
PLAYORDER=
